<?xml version="1.0" standalone="no"?>
<!DOCTYPE svg PUBLIC "-//W3C//DTD SVG 20010904//EN"
 "http://www.w3.org/TR/2001/REC-SVG-20010904/DTD/svg10.dtd">
<svg version="1.0" xmlns="http://www.w3.org/2000/svg"
 width="60.000000pt" height="60.000000pt" viewBox="0 0 172.000000 172.000000"
 preserveAspectRatio="xMidYMid meet">
<metadata>
Created by Adam Fowles
</metadata>
<g transform="translate(70.000000,100.000000) scale(0.100000,-0.100000)"
fill="#dddddd" stroke="none">
<path d="M321 744 c-116 -31 -214 -127 -247 -241 -24 -81 -20 -84 88 -81 l92
3 9 37 c10 43 60 97 110 121 19 9 69 22 112 28 74 11 115 32 115 59 0 21 -54
60 -103 75 -62 18 -106 18 -176 -1z m139 -29 c54 -28 36 -53 -74 -104 -42 -19
-85 -48 -107 -72 l-37 -40 -66 23 -66 24 30 46 c17 25 47 59 68 74 74 57 192
80 252 49z"/>
<path d="M709 539 l-77 -40 9 -37 c13 -58 -6 -110 -58 -160 -52 -50 -50 -68 3
-27 41 31 70 75 80 120 7 34 19 45 52 45 21 0 22 -3 16 -37 -11 -61 -33 -106
-71 -145 -20 -21 -33 -41 -29 -45 4 -5 28 14 52 40 43 47 74 121 74 174 0 19
5 23 31 23 l32 0 -6 -52 c-9 -74 -50 -150 -109 -203 -27 -25 -54 -45 -59 -45
-5 0 -9 -4 -9 -10 0 -25 37 -5 94 52 74 75 106 146 105 236 0 58 -26 143 -44
148 -5 2 -44 -15 -86 -37z"/>
<path d="M73 343 c8 -48 71 -138 122 -176 59 -44 137 -77 196 -84 l52 -6 -5
82 c-5 86 -13 101 -55 101 -15 0 -24 -9 -32 -30 -5 -17 -14 -30 -19 -30 -15 0
-87 56 -110 85 -12 15 -27 42 -34 61 -12 35 -28 45 -28 19 0 -46 70 -134 133
-166 36 -19 45 -40 29 -66 -6 -10 -18 -8 -49 8 -72 36 -121 86 -159 165 -19
41 -38 74 -41 74 -3 0 -3 -17 0 -37z"/>
</g>
</svg>
